# xmcd CD Database Entry
#
# Track frame offsets:
# 180
# 10723
# 63521
# 83679
# 106282
# 114059
# 146717
# 166039
# 190351
# 199227
# 225322
# 249021
# 269503
# 292435
# 312384
#
# Disc length: 4366 seconds
#
# Revision: 1
# Processed by: cddbd v1.4PL0 Copyright (c) Steve Scherf et al.
# Submitted via: tcd 2.0b
#
DISCID=ca110c0f
DTITLE=Enigma - Romantic Ballads
DYEAR=1900
DGENRE=
TTITLE0=The Voice Of Enigma
TTITLE1=Rpinciples Of Lust
TTITLE2=Callas Went Away
TTITLE3=Mea Culpa
TTITLE4=The Voice and The Snake
TTITLE5=The Eyes Of Truth
TTITLE6=Return To Innocence
TTITLE7=Age Of Loneliness (Carly's Song)
TTITLE8=Le Roi Est Mort, Vive Le Roi!
TTITLE9=Morphing Thru Time
TTITLE10=Third Of Its Kind
TTITLE11=Shadows In Silence
TTITLE12=The Child In Us
TTITLE13=T.N.T. For The Brain
TTITLE14=Almost Full Moon
EXTD=
EXTT0=
EXTT1=
EXTT2=
EXTT3=
EXTT4=
EXTT5=
EXTT6=
EXTT7=
EXTT8=
EXTT9=
EXTT10=
EXTT11=
EXTT12=
EXTT13=
EXTT14=
PLAYORDER=
